<?xml version="1.0" encoding="utf-8"?>
<!-- Generator: Adobe Illustrator 26.1.0, SVG Export Plug-In . SVG Version: 6.00 Build 0)  -->
<svg version="1.1" id="Layer_1" xmlns="http://www.w3.org/2000/svg" xmlns:xlink="http://www.w3.org/1999/xlink" x="0px" y="0px"
	 viewBox="0 0 461 109" style="enable-background:new 0 0 461 109;" xml:space="preserve">
<style type="text/css">
	.st0{fill:#0E0906;}
</style>
<g>
	<g>
		<g>
			<path class="st0" d="M97.49,25.62c8.12,0,15.49,5.59,16.25,15.49v34.15c0.25,3.94,2.29,7.74,6.47,7.87h0.25v1.02H99.14v-1.02
				c4.44,0,6.6-4.19,6.6-8.25v-32.5c0-4.44-0.38-9.27-4.06-11.81c-1.78-1.14-3.94-1.78-6.35-1.78c-2.67,0-5.46,0.76-8.25,1.9
				c-3.94,1.78-6.98,4.95-9.39,8.38c0.13,1.01,0.25,1.4,0.25,2.41v33.77c0.25,3.94,2.28,7.74,6.47,7.87h0.13v1.02h-21.2v-1.02
				c4.44,0,6.47-4.19,6.6-8.25V42.89c0-4.57-0.38-9.78-4.06-12.31c-1.78-1.14-3.93-1.78-6.35-1.78c-2.67,0-5.59,0.76-8.25,1.9
				c-3.81,1.78-6.73,4.7-9.14,8v36.56c0.13,3.94,2.28,7.87,6.6,7.87v1.02H27.42v-1.02c4.57,0,6.6-4.19,6.73-8.25V36.03
				c0-4.32-2.41-6.6-6.73-6.73v-1.02c3.94,0,10.41-0.38,13.58-2.67h1.14v11.43c1.78-2.67,3.93-4.7,6.47-6.6
				c3.68-2.92,7.74-4.7,12.06-4.82h1.14c7.24,0,13.71,4.44,15.61,12.31c2.03-3.3,4.44-5.46,6.98-7.49c3.68-2.92,7.74-4.7,12.06-4.82
				H97.49z"/>
			<path class="st0" d="M129.97,34.38c4.82-6.22,12.95-8.76,20.69-8.89c4.44,0,8.89,0.76,12.44,2.41c0.76,0.38,1.52,0.76,2.29,1.27
				c3.17,2.03,4.7,4.32,5.46,7.74c0.13,0.64,0.13,1.27,0.13,1.9c0,9.39-10.28,11.55-18.02,13.58c-14.85,4.57-19.8,11.55-19.8,17.77
				v0.76c0.51,7.87,5.84,11.8,12.06,11.8c0.76,0,1.4,0,2.16-0.13c6.47-0.89,15.99-8.38,15.99-15.49c0-1.52-0.38-2.92-1.27-4.32
				c5.21-1.78,8.25-4.06,9.01-8.76v18.15c0,6.22,2.28,7.11,7.36,7.11v1.02h-0.89c-2.54,0-4.7,0.51-6.47,1.14
				c-1.78,0.76-3.17,1.78-4.06,2.67h-1.27c-1.52-0.89-2.41-3.94-2.67-9.01v-2.67c-3.55,6.73-10.41,11.68-18.91,11.8
				c-3.81,0-7.36-0.64-10.28-1.9c-4.95-2.16-8.38-6.6-8.38-12.06v-0.25c0.13-5.84,3.3-10.92,8.38-13.71
				c9.52-5.2,29.2-2.92,29.2-16.76c0-8.89-4.57-12.95-13.33-12.95h-0.63c-8.38,0-16.5,5.21-19.17,13.2V34.38z"/>
			<path class="st0" d="M288.77,75.25c0.25,3.94,2.28,7.74,6.6,7.87v1.02h-21.2v-1.02c4.44-0.13,6.6-4.19,6.6-8.25V42.5
				c0-4.32-0.38-9.27-4.06-11.68c-1.78-1.27-4.06-1.78-6.47-1.78c-2.54,0-5.46,0.64-8.12,1.9c-4.32,2.03-7.62,5.71-10.28,9.78
				c0,0-17.01,17.52-22.72,23.61v7.74c0,6.22,2.28,7.11,7.36,7.24v0.89h-0.89c-2.54,0-4.82,0.51-6.47,1.14
				c-1.9,0.76-3.3,1.78-4.19,2.79h-1.14c-1.52-1.02-2.54-4.06-2.67-9.14v-1.4c-0.38,0.25-0.76,0.51-1.14,0.64
				c-3.68,5.71-10.16,9.9-17.9,9.9c-3.81,0-7.24-0.63-10.16-1.78c-5.08-2.28-8.38-6.73-8.38-12.19v-0.25
				c0.13-5.84,3.17-10.92,8.38-13.71c9.52-5.2,29.2-2.92,29.2-16.63c0-9.01-4.7-13.07-13.71-13.07c-8.5,0-16.76,5.08-19.42,13.33
				v-5.58c4.82-6.22,12.82-8.76,20.69-8.76h0.89c4.19,0,8.12,0.76,11.55,2.28c0.76,0.38,1.52,0.76,2.29,1.27
				c3.05,2.03,4.7,4.32,5.33,7.74c0.13,0.64,0.13,1.4,0.13,2.03c0,9.27-10.16,11.55-18.03,13.46c-14.6,4.44-19.68,11.55-19.68,17.64
				v0.89c0.51,8,5.84,11.8,12.06,11.8c0.63,0,1.4,0,2.16-0.13c3.68-0.51,7.36-2.67,10.15-5.2c1.65-1.4,2.67-3.05,4.06-4.57
				c1.9-2.41,23.1-23.23,24.25-24.63V35.9c0-4.19-2.41-6.22-6.6-6.35v-1.01c3.93-0.13,10.41-0.38,13.58-2.79h1.02v13.58
				c2.16-3.94,4.82-6.47,7.74-8.76c3.55-2.79,7.62-4.57,12.06-4.82h0.76c8.12,0,15.61,5.71,16.38,15.61V75.25z M251.83,75.38
				c0.13,3.93,2.28,7.74,6.6,7.74v1.02h-21.2v-1.02c4.44,0,6.47-4.06,6.6-8.12V55.45l8-7.49V75.38z"/>
			<path class="st0" d="M346.39,25.11h14.85v1.02c-5.71,0.13-7.24,1.4-8.38,4.57c-5.97,16.38-11.93,32.62-17.9,48.87v0.38
				c0,1.78,2.79,2.67,6.09,2.67v1.14h-22.34v-1.14c3.68,0,6.09-1.14,6.09-3.05c0-0.25,0-0.51-0.13-0.76L308.81,30.7
				c-1.27-3.55-4.95-4.57-8.38-4.57v-1.02h22.21v1.02c-3.93,0-5.58,1.14-5.58,3.3c0,0.38,0.13,0.63,0.13,1.02l16.38,49.51
				c0.51-1.27,13.84-37.96,18.02-49.51c0.38-1.02,0.64-1.78,0.64-2.41c0-1.4-1.27-1.9-5.84-1.9V25.11z"/>
			<path class="st0" d="M380.9,74.87V25.12h-1c-1.53,1-3.81,1.76-6.98,2.27c-1.9,0.26-4.2,0.39-6.61,0.39v1.15
				c4.07,0,6.61,2.15,6.61,6.35V74.5c0,4.05-2.17,8.25-6.61,8.25v1h21.33v-1C383.2,82.75,381.17,78.8,380.9,74.87z"/>
			<path class="st0" d="M433.58,69.42c0,0.76,0,1.52-0.13,2.28c-1.02,6.98-7.62,12.57-19.93,12.82h-1.14
				c-2.67,0-5.08-0.38-7.24-0.89c-3.81-1.02-6.73-2.41-7.74-2.41c-1.4,0.13-2.03,1.14-2.29,3.43h-1.14V65.1h1.14
				c0.38,11.17,4.57,18.28,17.26,18.28h1.02c7.49-0.13,12.06-3.56,12.19-10.54v-0.25c0-7.62-5.59-11.93-11.68-15.99
				c-8.38-5.33-18.28-9.9-18.28-20.31V35.9c0.25-8.89,8.76-11.42,17.52-11.42c4.57,0,9.01,0.89,12.06,2.29
				c0.89,0.38,1.65,0.51,2.29,0.51c1.65,0,2.28-1.01,2.41-2.92h1.14v16.63h-1.14c-0.51-8.25-6.47-15.49-16.38-15.49h-0.25
				c-6.22,0.13-8.76,4.32-8.76,9.14v1.27c0.51,7.11,8.89,11.42,16.37,16.38C427.49,56.72,433.58,61.67,433.58,69.42z"/>
		</g>
	</g>
</g>
</svg>
